<svg width="25" height="25" viewBox="0 0 25 25" fill="#404040" xmlns="http://www.w3.org/2000/svg">
<path d="M7.29166 21.875C6.71874 21.875 6.22846 21.6712 5.82082 21.2635C5.41249 20.8552 5.20832 20.3646 5.20832 19.7917V6.25C4.91318 6.25 4.66561 6.15035 4.46562 5.95104C4.26631 5.75104 4.16666 5.50347 4.16666 5.20833C4.16666 4.91319 4.26631 4.66563 4.46562 4.46563C4.66561 4.26632 4.91318 4.16667 5.20832 4.16667H9.37499C9.37499 3.87153 9.47499 3.62396 9.67499 3.42396C9.8743 3.22465 10.1215 3.125 10.4167 3.125H14.5833C14.8785 3.125 15.126 3.22465 15.326 3.42396C15.5253 3.62396 15.625 3.87153 15.625 4.16667H19.7917C20.0868 4.16667 20.334 4.26632 20.5333 4.46563C20.7333 4.66563 20.8333 4.91319 20.8333 5.20833C20.8333 5.50347 20.7333 5.75104 20.5333 5.95104C20.334 6.15035 20.0868 6.25 19.7917 6.25V19.7917C19.7917 20.3646 19.5878 20.8552 19.1802 21.2635C18.7719 21.6712 18.2812 21.875 17.7083 21.875H7.29166ZM9.37499 16.6667C9.37499 16.9618 9.47499 17.209 9.67499 17.4083C9.8743 17.6083 10.1215 17.7083 10.4167 17.7083C10.7118 17.7083 10.9594 17.6083 11.1594 17.4083C11.3587 17.209 11.4583 16.9618 11.4583 16.6667V9.375C11.4583 9.07986 11.3587 8.83229 11.1594 8.63229C10.9594 8.43299 10.7118 8.33333 10.4167 8.33333C10.1215 8.33333 9.8743 8.43299 9.67499 8.63229C9.47499 8.83229 9.37499 9.07986 9.37499 9.375V16.6667ZM13.5417 16.6667C13.5417 16.9618 13.6417 17.209 13.8417 17.4083C14.041 17.6083 14.2882 17.7083 14.5833 17.7083C14.8785 17.7083 15.126 17.6083 15.326 17.4083C15.5253 17.209 15.625 16.9618 15.625 16.6667V9.375C15.625 9.07986 15.5253 8.83229 15.326 8.63229C15.126 8.43299 14.8785 8.33333 14.5833 8.33333C14.2882 8.33333 14.041 8.43299 13.8417 8.63229C13.6417 8.83229 13.5417 9.07986 13.5417 9.375V16.6667Z"/>
</svg>
