<svg width="24" height="25" viewBox="0 0 24 25" fill="none" xmlns="http://www.w3.org/2000/svg">
<path d="M21.8055 10.4599H21V10.4167H12V14.5833H17.6515C16.827 17.0089 14.6115 18.75 12 18.75C8.6865 18.75 6 15.9516 6 12.5C6 9.04843 8.6865 6.25 12 6.25C13.5295 6.25 14.921 6.85104 15.9805 7.83281L18.809 4.88645C17.023 3.1526 14.634 2.08333 12 2.08333C6.4775 2.08333 2 6.74739 2 12.5C2 18.2526 6.4775 22.9167 12 22.9167C17.5225 22.9167 22 18.2526 22 12.5C22 11.8016 21.931 11.1198 21.8055 10.4599Z" fill="#FFC107"/>
<path d="M3.15302 7.65156L6.43851 10.1615C7.32751 7.86874 9.48052 6.24999 12 6.24999C13.5295 6.24999 14.921 6.85104 15.9805 7.83281L18.809 4.88645C17.023 3.1526 14.634 2.08333 12 2.08333C8.15902 2.08333 4.82802 4.34218 3.15302 7.65156Z" fill="#FF3D00"/>
<path d="M12 22.9167C14.583 22.9167 16.93 21.887 18.7045 20.2125L15.6095 17.4844C14.5718 18.3065 13.3037 18.7511 12 18.75C9.399 18.75 7.1905 17.0224 6.3585 14.6115L3.0975 17.2287C4.7525 20.6021 8.1135 22.9167 12 22.9167Z" fill="#4CAF50"/>
<path d="M21.8055 10.4599H21V10.4167H12V14.5833H17.6515C17.2571 15.7377 16.5467 16.7465 15.608 17.4849L15.6095 17.4839L18.7045 20.212C18.4855 20.4193 22 17.7083 22 12.5C22 11.8016 21.931 11.1198 21.8055 10.4599Z" fill="#1976D2"/>
</svg>
