<svg width="25" height="25" viewBox="0 0 25 25" fill="#404040"  xmlns="http://www.w3.org/2000/svg">
<path d="M5.20833 21.875H19.7917C20.3442 21.875 20.8741 21.6555 21.2648 21.2648C21.6555 20.8741 21.875 20.3442 21.875 19.7917V5.20833C21.875 4.6558 21.6555 4.12589 21.2648 3.73519C20.8741 3.34449 20.3442 3.125 19.7917 3.125H5.20833C4.6558 3.125 4.12589 3.34449 3.73519 3.73519C3.34449 4.12589 3.125 4.6558 3.125 5.20833V19.7917C3.125 20.3442 3.34449 20.8741 3.73519 21.2648C4.12589 21.6555 4.6558 21.875 5.20833 21.875ZM8.33333 14.5833L10.7948 17.0448L14.5833 11.4583L19.7917 18.75H5.20833L8.33333 14.5833Z"/>
</svg>
