<svg width="25" height="25" viewBox="0 0 25 25" fill="#404040" xmlns="http://www.w3.org/2000/svg">
<path d="M9.375 13.5417L5.20834 16.6667C4.16667 17.5833 4.02084 18.875 4.16667 19.7917C4.30209 20.8333 5.11459 22.1042 6.25 22.5833C7.88542 23.2812 9.46875 22.8125 10.4583 21.7917L19.7917 13.5417C21.7292 12.1042 20.8333 9.37499 18.75 9.37499H12.5L20.2708 4.80208C20.7292 4.46874 20.9167 3.97916 20.8958 3.51041C20.8333 2.78124 20.2708 2.08333 19.375 2.08333H19.3125C18.9479 2.08333 18.6042 2.19791 18.2917 2.38541L5.20834 9.37499C4.36459 9.85416 4.10417 10.6667 4.16667 11.4583C4.21875 12.5312 4.9375 13.5417 6.25 13.5417M5.20834 19.2708C5.20834 18.5802 5.4827 17.9178 5.97108 17.4294C6.45945 16.941 7.12183 16.6667 7.8125 16.6667C8.50317 16.6667 9.16555 16.941 9.65393 17.4294C10.1423 17.9178 10.4167 18.5802 10.4167 19.2708C10.4167 19.9615 10.1423 20.6239 9.65393 21.1123C9.16555 21.6006 8.50317 21.875 7.8125 21.875C7.12183 21.875 6.45945 21.6006 5.97108 21.1123C5.4827 20.6239 5.20834 19.9615 5.20834 19.2708Z" />
</svg>
