<svg width="17" height="19" viewBox="0 0 17 19" fill="none" xmlns="http://www.w3.org/2000/svg">
<path d="M11.0999 18.1136C11.4278 18.1155 11.7528 18.0519 12.0559 17.9267C12.359 17.8014 12.6341 17.617 12.865 17.3841L16.0363 14.2128L16.0726 14.1765L16.0363 14.1402L15.0077 13.1116L14.9715 13.0753L14.9352 13.1115L11.7654 16.2742C11.581 16.4272 11.3463 16.506 11.1069 16.4952C10.8668 16.4843 10.6395 16.3841 10.4695 16.2141C10.2996 16.0442 10.1993 15.8168 10.1885 15.5767C10.1776 15.3373 10.2564 15.1026 10.4094 14.9183L14.0854 11.2422C14.3357 11.0146 14.5372 10.7385 14.6776 10.4307C14.8183 10.1225 14.8949 9.78902 14.9028 9.45038C14.9107 9.11173 14.8497 8.77502 14.7236 8.46064C14.5974 8.14626 14.4088 7.86078 14.169 7.62151C13.9292 7.38223 13.6434 7.19415 13.3287 7.06867C13.0141 6.94318 12.6772 6.88291 12.3386 6.8915C12 6.9001 11.6666 6.97739 11.3588 7.11867C11.0513 7.25978 10.7757 7.46179 10.5485 7.71249L5.64984 12.6111C5.46686 12.7852 5.22398 12.8823 4.97143 12.8823C4.71892 12.8823 4.47607 12.7852 4.2931 12.6112C4.11453 12.4309 4.01434 12.1874 4.01434 11.9336C4.01434 11.6796 4.1147 11.4359 4.29355 11.2556C4.29357 11.2555 4.29359 11.2555 4.29361 11.2555L10.4149 5.13422L10.4149 5.13426L10.4166 5.13245C10.8486 4.65714 11.0812 4.03383 11.0663 3.39169C11.0513 2.74954 10.7899 2.13776 10.3361 1.6831C9.88242 1.22844 9.27118 0.965744 8.62906 0.949444C7.98695 0.933144 7.36317 1.16449 6.88696 1.59554L6.88692 1.59549L6.88509 1.59732L0.96366 7.52589L0.927255 7.56234L0.963811 7.59864L1.97095 8.59864L2.00716 8.63459L2.04335 8.59862L7.98621 2.69147L7.98637 2.69163L7.98945 2.68794C8.07512 2.5852 8.18127 2.50145 8.30111 2.44201C8.42095 2.38257 8.55186 2.34875 8.6855 2.34271C8.81914 2.33667 8.95257 2.35854 9.07728 2.40693C9.202 2.45532 9.31527 2.52917 9.40986 2.62376C9.50445 2.71835 9.57829 2.83162 9.62668 2.95633C9.67507 3.08105 9.69695 3.21448 9.69091 3.34812C9.68487 3.48175 9.65105 3.61267 9.59161 3.73251C9.53217 3.85235 9.44841 3.9585 9.34568 4.04417L9.34554 4.04401L9.34225 4.0473L3.21368 10.1759L3.2136 10.176C2.7469 10.6447 2.48488 11.2793 2.48488 11.9408C2.48488 12.6022 2.7469 13.2368 3.2136 13.7056L3.21441 13.7064C3.68963 14.163 4.3231 14.418 4.98214 14.418C5.64118 14.418 6.27466 14.163 6.74987 13.7064L6.74988 13.7064L6.75058 13.7057L11.6506 8.81282L11.6507 8.81297L11.6537 8.80937C11.7394 8.70663 11.8456 8.62287 11.9654 8.56343C12.0852 8.50399 12.2162 8.47018 12.3498 8.46414C12.4834 8.4581 12.6169 8.47997 12.7416 8.52836C12.8663 8.57675 12.9796 8.6506 13.0741 8.74519C13.1687 8.83978 13.2426 8.95305 13.291 9.07776C13.3394 9.20248 13.3612 9.33591 13.3552 9.46955C13.3492 9.60318 13.3153 9.7341 13.2559 9.85394C13.1965 9.97378 13.1127 10.0799 13.01 10.1656L13.0098 10.1654L13.0065 10.1688L9.33529 13.8471C9.33525 13.8472 9.33521 13.8472 9.33517 13.8472C8.98339 14.1957 8.74327 14.6409 8.64538 15.1262C8.54749 15.6117 8.59629 16.1152 8.78558 16.5728C8.97487 17.0304 9.29607 17.4212 9.70827 17.6956C10.1204 17.97 10.6049 18.1155 11.0999 18.1136ZM11.0999 18.1136C11.0999 18.1136 11.0998 18.1136 11.0997 18.1136L11.1 18.0622L11.1002 18.1136C11.1001 18.1136 11.1 18.1136 11.0999 18.1136Z" fill="#008FE0" stroke="#008FE0" stroke-width="0.102724"/>
</svg>
