<svg width="25" height="25" viewBox="0 0 25 25" fill="#404040" xmlns="http://www.w3.org/2000/svg">
<path d="M20.5357 8.03571L19.2768 9.29464L21.5804 11.6071H13.3929V3.41964L15.7054 5.72321L16.9643 4.46429L12.5 0L8.03571 4.46429L9.29464 5.72321L11.6071 3.41964V11.6071H3.41964L5.72321 9.29464L4.46429 8.03571L0 12.5L4.46429 16.9643L5.72321 15.7054L3.41964 13.3929H11.6071V21.5804L9.29464 19.2768L8.03571 20.5357L12.5 25L16.9643 20.5357L15.7054 19.2768L13.3929 21.5804V13.3929H21.5804L19.2768 15.7054L20.5357 16.9643L25 12.5L20.5357 8.03571Z" />
</svg>
