<svg width="25" height="25" viewBox="0 0 25 25" fill="#404040" xmlns="http://www.w3.org/2000/svg">
<path d="M9.06979 20.5281L18.75 10.8479L14.1521 6.25L4.47188 15.9302C4.33861 16.0636 4.24394 16.2307 4.19792 16.4135L3.125 21.875L8.58542 20.8021C8.76875 20.7563 8.93646 20.6615 9.06979 20.5281V20.5281ZM21.875 7.72292C22.2656 7.33224 22.485 6.80243 22.485 6.25C22.485 5.69758 22.2656 5.16777 21.875 4.77708L20.2229 3.125C19.8322 2.73444 19.3024 2.51503 18.75 2.51503C18.1976 2.51503 17.6678 2.73444 17.2771 3.125L15.625 4.77708L20.2229 9.375L21.875 7.72292Z" />
</svg>

