<svg width="25" height="25" viewBox="0 0 25 25" fill="#404040" xmlns="http://www.w3.org/2000/svg">
<path d="M21.0937 17.2969V7.70313C21.629 7.5675 22.1187 7.29247 22.5131 6.90604C22.9075 6.51961 23.1925 6.03558 23.3391 5.50322C23.4856 4.97086 23.4885 4.40918 23.3474 3.87535C23.2063 3.34152 22.9263 2.8546 22.5358 2.46417C22.1454 2.07373 21.6585 1.79371 21.1246 1.65262C20.5908 1.51153 20.0291 1.5144 19.4968 1.66093C18.9644 1.80747 18.4804 2.09245 18.094 2.48685C17.7075 2.88126 17.4325 3.37101 17.2969 3.90625H7.70311C7.56748 3.37101 7.29245 2.88126 6.90603 2.48685C6.5196 2.09245 6.03557 1.80747 5.50321 1.66093C4.97085 1.5144 4.40916 1.51153 3.87533 1.65262C3.3415 1.79371 2.85459 2.07373 2.46415 2.46417C2.07371 2.8546 1.7937 3.34152 1.6526 3.87535C1.51151 4.40918 1.51438 4.97086 1.66092 5.50322C1.80746 6.03558 2.09243 6.51961 2.48684 6.90604C2.88124 7.29247 3.37099 7.5675 3.90624 7.70313V17.2969C3.37099 17.4325 2.88124 17.7075 2.48684 18.094C2.09243 18.4804 1.80746 18.9644 1.66092 19.4968C1.51438 20.0291 1.51151 20.5908 1.6526 21.1247C1.7937 21.6585 2.07371 22.1454 2.46415 22.5358C2.85459 22.9263 3.3415 23.2063 3.87533 23.3474C4.40916 23.4885 4.97085 23.4856 5.50321 23.3391C6.03557 23.1925 6.5196 22.9076 6.90603 22.5132C7.29245 22.1187 7.56748 21.629 7.70311 21.0938H17.2969C17.4325 21.629 17.7075 22.1187 18.094 22.5132C18.4804 22.9076 18.9644 23.1925 19.4968 23.3391C20.0291 23.4856 20.5908 23.4885 21.1246 23.3474C21.6585 23.2063 22.1454 22.9263 22.5358 22.5358C22.9263 22.1454 23.2063 21.6585 23.3474 21.1247C23.4885 20.5908 23.4856 20.0291 23.3391 19.4968C23.1925 18.9644 22.9075 18.4804 22.5131 18.094C22.1187 17.7075 21.629 17.4325 21.0937 17.2969ZM20.3125 3.125C20.6215 3.125 20.9236 3.21664 21.1806 3.38833C21.4375 3.56002 21.6378 3.80405 21.7561 4.08956C21.8743 4.37507 21.9053 4.68924 21.845 4.99233C21.7847 5.29543 21.6359 5.57384 21.4173 5.79236C21.1988 6.01088 20.9204 6.15969 20.6173 6.21998C20.3142 6.28027 20.0001 6.24933 19.7145 6.13107C19.429 6.0128 19.185 5.81253 19.0133 5.55558C18.8416 5.29863 18.75 4.99654 18.75 4.6875C18.75 4.2731 18.9146 3.87567 19.2076 3.58265C19.5007 3.28962 19.8981 3.125 20.3125 3.125V3.125ZM3.12499 4.6875C3.12499 4.37847 3.21663 4.07638 3.38832 3.81943C3.56001 3.56247 3.80404 3.3622 4.08955 3.24394C4.37505 3.12568 4.68922 3.09474 4.99232 3.15503C5.29541 3.21532 5.57382 3.36413 5.79234 3.58265C6.01086 3.80117 6.15968 4.07958 6.21997 4.38268C6.28025 4.68577 6.24931 4.99994 6.13105 5.28545C6.01279 5.57096 5.81252 5.81499 5.55557 5.98667C5.29861 6.15836 4.99652 6.25 4.68749 6.25C4.27309 6.25 3.87566 6.08538 3.58263 5.79236C3.28961 5.49933 3.12499 5.1019 3.12499 4.6875V4.6875ZM4.68749 21.875C4.37846 21.875 4.07636 21.7834 3.81941 21.6117C3.56246 21.44 3.36219 21.196 3.24393 20.9104C3.12566 20.6249 3.09472 20.3108 3.15501 20.0077C3.2153 19.7046 3.36411 19.4262 3.58263 19.2076C3.80115 18.9891 4.07956 18.8403 4.38266 18.78C4.68576 18.7197 4.99992 18.7507 5.28543 18.8689C5.57094 18.9872 5.81497 19.1875 5.98666 19.4444C6.15835 19.7014 6.24999 20.0035 6.24999 20.3125C6.24999 20.7269 6.08537 21.1243 5.79234 21.4174C5.49932 21.7104 5.10189 21.875 4.68749 21.875ZM17.2969 19.5313H7.70311C7.56283 18.9939 7.28187 18.5036 6.88914 18.1108C6.49642 17.7181 6.00613 17.4372 5.46874 17.2969V7.70313C6.00613 7.56285 6.49642 7.28188 6.88914 6.88916C7.28187 6.49644 7.56283 6.00614 7.70311 5.46875H17.2969C17.4371 6.00614 17.7181 6.49644 18.1108 6.88916C18.5036 7.28188 18.9939 7.56285 19.5312 7.70313V17.2969C18.9939 17.4372 18.5036 17.7181 18.1108 18.1108C17.7181 18.5036 17.4371 18.9939 17.2969 19.5313V19.5313ZM20.3125 21.875C20.0035 21.875 19.7014 21.7834 19.4444 21.6117C19.1875 21.44 18.9872 21.196 18.8689 20.9104C18.7507 20.6249 18.7197 20.3108 18.78 20.0077C18.8403 19.7046 18.9891 19.4262 19.2076 19.2076C19.4262 18.9891 19.7046 18.8403 20.0077 18.78C20.3108 18.7197 20.6249 18.7507 20.9104 18.8689C21.1959 18.9872 21.44 19.1875 21.6117 19.4444C21.7833 19.7014 21.875 20.0035 21.875 20.3125C21.875 20.7269 21.7104 21.1243 21.4173 21.4174C21.1243 21.7104 20.7269 21.875 20.3125 21.875Z" />
<path d="M16.4062 8.59375H8.59375V10.1562H11.7188V17.1875H13.2812V10.1562H16.4062V8.59375Z" />
</svg>
